# xmcd
#
# Track frame offsets:
#	150
#	3168
#	17944
#	36390
#	64628
#	89472
#	115610
#	134918
#	155674
#	177556
#	203157
#	235225
#	265415
#	298430
#	314413
#
# Disc length: 4505 seconds
#
# Revision: 1
# Processed by: cddbd v1.5.2PL0 Copyright (c) Steve Scherf et al.
# Submitted via: audiograbber 1.83.01
#
DISCID=e411970f
DTITLE=Hegemann, Helene - Jage zwei Tiger CD01
DYEAR=2013
DGENRE=Hörbuch
TTITLE0=001
TTITLE1=002
TTITLE2=003
TTITLE3=004
TTITLE4=005
TTITLE5=006
TTITLE6=007
TTITLE7=008
TTITLE8=009
TTITLE9=010
TTITLE10=011
TTITLE11=012
TTITLE12=013
TTITLE13=014
TTITLE14=015
EXTD=gelesen von Birgit Minichmayr
EXTT0=
EXTT1=
EXTT2=
EXTT3=
EXTT4=
EXTT5=
EXTT6=
EXTT7=
EXTT8=
EXTT9=
EXTT10=
EXTT11=
EXTT12=
EXTT13=
EXTT14=
PLAYORDER=
